<?xml version="1.0" standalone="no"?>
<!DOCTYPE svg PUBLIC "-//W3C//DTD SVG 20010904//EN"
 "http://www.w3.org/TR/2001/REC-SVG-20010904/DTD/svg10.dtd">
<svg version="1.0" xmlns="http://www.w3.org/2000/svg"
 width="2000.000000pt" height="1414.000000pt" viewBox="0 0 2000.000000 1414.000000"
 preserveAspectRatio="xMidYMid meet">

<g transform="translate(0.000000,1414.000000) scale(0.100000,-0.100000)"
fill="#000000" stroke="none">
<path d="M2874 8036 c-38 -17 -44 -32 -44 -103 l0 -55 85 -86 c80 -81 85 -88
85 -128 0 -62 -28 -79 -115 -69 l-65 7 0 -30 c0 -35 16 -42 107 -42 105 0 133
23 147 121 10 66 -5 94 -95 180 -66 63 -79 81 -79 107 0 40 12 47 82 44 32 -2
58 2 58 7 0 5 3 16 6 24 4 11 -7 18 -46 26 -65 14 -88 13 -126 -3z"/>
<path d="M4013 8043 l-33 -4 0 -255 0 -255 33 3 32 3 3 111 3 111 66 6 c53 4
70 10 91 31 24 24 26 32 25 112 -1 78 -3 89 -26 112 -21 21 -36 25 -93 27 -38
2 -84 1 -101 -2z m141 -73 c5 -5 11 -30 13 -57 6 -63 -10 -84 -70 -90 l-47 -6
0 88 0 88 47 -7 c26 -3 51 -10 57 -16z"/>
<path d="M9540 8037 c-45 -23 -63 -91 -40 -153 6 -15 47 -62 90 -104 70 -67
80 -80 80 -111 0 -62 -18 -74 -104 -72 l-76 2 0 -29 c0 -33 17 -40 110 -40
100 0 140 40 140 143 0 62 -11 80 -112 178 -96 92 -90 132 20 133 50 1 57 4
60 22 3 18 -5 23 -42 33 -58 14 -95 14 -126 -2z"/>
<path d="M10213 8035 c-17 -7 -39 -27 -47 -44 -23 -44 -39 -175 -32 -261 14
-161 41 -200 138 -200 95 0 120 39 134 205 7 88 -8 210 -31 256 -28 54 -97 73
-162 44z m84 -60 c29 -20 43 -87 42 -197 -1 -145 -25 -199 -81 -185 -40 10
-53 56 -53 187 0 128 6 161 35 190 24 24 29 24 57 5z"/>
<path d="M11253 8043 l-33 -4 0 -255 0 -255 33 3 32 3 3 113 c2 81 6 112 15
112 7 0 37 -51 67 -112 55 -112 55 -113 93 -116 l38 -3 -49 98 c-64 128 -68
139 -43 146 34 8 53 139 32 217 -13 48 -80 66 -188 53z m119 -75 c4 -7 8 -35
8 -63 0 -63 -8 -74 -53 -82 l-37 -6 0 88 0 88 37 -6 c20 -4 40 -12 45 -19z"/>
<path d="M3150 7785 l0 -255 100 0 100 0 0 30 0 30 -67 0 -68 0 3 202 c2 111
1 212 -3 225 -4 18 -12 23 -35 23 l-30 0 0 -255z"/>
<path d="M3410 7785 l0 -255 110 0 110 0 0 30 0 30 -75 0 -75 0 0 90 0 89 68
3 67 3 0 30 0 30 -67 3 -66 3 -4 69 -3 70 78 0 77 0 0 30 0 30 -110 0 -110 0
0 -255z"/>
<path d="M3690 7785 l0 -255 115 0 115 0 0 30 0 30 -80 0 -80 0 0 90 0 90 70
0 70 0 0 35 0 35 -70 0 -70 0 0 70 0 70 75 0 75 0 0 30 0 30 -110 0 -110 0 0
-255z"/>
<path d="M9810 7785 l0 -255 30 0 c38 0 42 17 38 144 l-3 96 57 0 57 0 3 -117
3 -118 28 -3 27 -3 0 255 0 256 -30 0 -30 0 0 -100 0 -100 -57 0 -58 0 3 76
c5 105 -1 124 -38 124 l-30 0 0 -255z"/>
<path d="M10507 7808 c55 -303 48 -278 83 -278 33 0 32 -2 56 125 9 50 20 96
23 103 4 7 17 -42 30 -108 l23 -120 32 0 32 0 42 238 c24 130 43 245 42 255 0
13 -8 17 -34 17 -40 0 -36 11 -62 -210 -9 -80 -21 -149 -25 -154 -5 -6 -9 0
-9 15 0 13 -7 63 -16 112 l-16 87 -33 0 c-19 0 -36 -4 -39 -9 -4 -5 -13 -57
-23 -115 -9 -59 -17 -105 -18 -104 -2 2 -13 80 -24 173 -12 94 -24 178 -27
188 -4 12 -16 17 -43 17 l-37 0 43 -232z"/>
<path d="M10940 7785 l0 -255 110 0 110 0 0 30 0 30 -77 0 -78 0 0 90 0 90 68
0 67 0 0 35 0 35 -67 0 -68 0 0 70 0 70 73 0 72 0 0 30 0 30 -105 0 -105 0 0
-255z"/>
<path d="M16160 7785 l0 -255 115 0 115 0 0 30 0 30 -80 0 -80 0 0 90 0 90 70
0 70 0 0 35 0 35 -70 0 -70 0 0 70 0 70 75 0 75 0 0 30 0 30 -110 0 -110 0 0
-255z"/>
<path d="M16521 8003 c-34 -133 -101 -455 -96 -463 3 -6 19 -10 35 -10 27 0
29 3 40 58 21 110 16 102 64 102 l45 0 11 -57 c17 -89 25 -103 60 -103 16 0
30 4 30 9 0 5 -25 117 -55 249 -30 133 -55 243 -55 246 0 4 -16 6 -35 6 -31 0
-35 -3 -44 -37z m63 -175 l14 -68 -35 0 c-28 0 -33 3 -29 18 3 9 8 35 11 57 9
54 17 82 21 70 2 -5 10 -40 18 -77z"/>
<path d="M16740 8010 c0 -29 2 -30 43 -30 l42 0 -3 -226 -3 -225 33 3 33 3 3
223 2 222 40 0 c38 0 40 2 40 30 l0 30 -115 0 -115 0 0 -30z"/>
<path d="M8710 7915 c-8 -2 -55 -7 -104 -10 l-88 -7 4 -60 c6 -84 13 -88 167
-88 200 0 232 -17 239 -125 7 -105 -21 -150 -198 -330 -210 -213 -204 -198
-208 -522 l-3 -253 300 0 301 0 0 85 0 85 -206 0 -205 0 3 158 c4 207 6 211
197 402 95 94 157 165 176 200 29 53 30 60 30 180 0 79 -5 139 -13 163 -15 40
-69 84 -132 106 -34 12 -230 24 -260 16z"/>
<path d="M2028 7888 l-68 -10 0 -85 0 -84 38 6 c20 4 45 9 55 12 16 4 17 -25
17 -501 0 -277 3 -511 6 -520 5 -14 -6 -16 -85 -16 -102 0 -131 -15 -131 -67
0 -16 -3 -45 -6 -65 l-7 -38 307 0 306 0 0 85 0 85 -107 0 -108 0 3 583 c2
458 0 586 -10 600 -17 21 -120 29 -210 15z"/>
<path d="M15184 7887 c-3 -8 -4 -45 -2 -83 l3 -69 146 -5 147 -5 -84 -200
c-46 -110 -84 -202 -84 -206 0 -3 40 -9 90 -11 113 -7 136 -20 147 -85 11 -63
7 -450 -4 -488 -16 -53 -60 -67 -183 -60 -58 3 -122 8 -142 12 l-38 6 0 -76
c0 -85 -11 -77 122 -98 43 -6 125 -10 185 -7 135 6 185 27 213 92 29 64 43
249 38 495 -3 200 -5 220 -26 263 -19 37 -34 52 -75 72 -28 14 -57 26 -64 26
-7 0 -13 2 -13 5 0 3 38 97 85 209 47 112 85 209 85 215 0 8 -83 11 -270 11
-218 0 -272 -3 -276 -13z"/>
<path d="M9651 3828 c-64 -11 -141 -58 -175 -106 -65 -91 -65 -92 -66 -577
l-1 -440 -652 -435 -652 -435 103 -3 c92 -2 102 -5 102 -21 0 -15 10 -21 40
-26 45 -8 60 -2 60 26 0 18 8 19 145 19 117 0 145 -3 145 -14 0 -15 30 -26 73
-26 20 0 27 5 27 20 0 19 7 20 145 20 122 0 145 -2 145 -15 0 -11 12 -15 50
-15 38 0 50 4 50 15 0 13 23 15 145 15 122 0 145 -2 145 -15 0 -11 12 -15 50
-15 38 0 50 4 50 15 0 13 23 15 145 15 122 0 145 -2 145 -15 0 -11 12 -15 50
-15 38 0 50 4 50 15 0 13 23 15 145 15 138 0 145 -1 145 -20 0 -22 15 -25 69
-14 17 4 31 13 31 20 0 11 29 14 145 14 l145 0 0 -25 c0 -27 12 -30 69 -19 21
5 31 12 31 25 0 16 11 19 101 21 l101 3 -651 434 -651 435 0 426 c0 336 3 430
13 444 13 17 62 18 1001 17 543 -1 995 -5 1004 -8 9 -4 20 -11 24 -17 4 -6 8
-811 8 -1788 l0 -1778 115 0 115 0 0 1808 c0 1795 -1 1807 -21 1852 -33 74
-94 128 -169 150 -62 19 -109 20 -1057 22 -545 2 -1010 0 -1032 -4z"/>
<path d="M1072 3730 c-74 -18 -145 -86 -179 -171 -17 -41 -18 -147 -21 -1801
l-2 -1758 260 0 260 0 0 440 0 440 1965 0 1965 0 0 -440 0 -440 250 0 250 0
-2 1383 -3 1382 -26 55 c-45 97 -111 148 -203 157 -104 11 -200 -58 -248 -176
-23 -56 -23 -61 -26 -633 l-3 -578 -1964 0 -1964 0 -3 958 -3 957 -22 55 c-13
30 -36 71 -53 92 -51 61 -153 97 -228 78z"/>
<path d="M18977 3598 c-70 -73 -162 -260 -202 -413 -63 -238 -57 -482 21 -768
13 -51 36 -135 50 -187 33 -122 38 -288 11 -435 -16 -92 -18 -166 -15 -905 l3
-805 23 -32 c46 -64 138 -68 191 -7 l31 35 0 1742 c0 1638 -1 1744 -18 1777
-24 50 -46 49 -95 -2z"/>
<path d="M14747 3454 c-20 -33 -51 -516 -45 -719 3 -136 6 -155 30 -206 14
-32 51 -85 82 -118 31 -34 61 -73 66 -87 6 -16 10 -445 10 -1127 0 -1075 1
-1103 20 -1134 50 -82 160 -82 210 0 19 31 20 59 20 1149 0 754 3 1126 10
1144 6 15 28 47 50 70 90 97 102 160 90 441 -12 254 -29 506 -39 552 -10 50
-28 49 -35 -1 -13 -88 -25 -239 -36 -443 -13 -223 -19 -245 -65 -245 -48 0
-55 24 -65 226 -10 201 -27 417 -37 472 -6 38 -24 38 -34 -1 -10 -36 -26 -229
-40 -467 -12 -209 -18 -230 -66 -230 -36 0 -63 34 -63 79 0 66 -20 390 -31
511 -10 111 -20 152 -32 134z"/>
<path d="M16820 3359 c-419 -38 -824 -246 -1107 -568 -190 -216 -320 -477
-385 -774 -19 -88 -23 -132 -23 -322 0 -189 3 -236 22 -331 168 -824 895
-1399 1722 -1361 159 8 272 26 410 67 595 177 1037 660 1173 1283 19 88 22
133 23 322 0 191 -3 234 -23 330 -77 369 -267 702 -534 935 -362 316 -809 462
-1278 419z m420 -368 c547 -113 963 -541 1055 -1084 31 -186 18 -422 -34 -597
-151 -515 -600 -893 -1130 -951 -711 -77 -1349 405 -1466 1109 -26 152 -17
400 18 534 65 249 171 436 348 616 131 132 258 219 426 292 102 44 265 87 379
100 111 12 293 4 404 -19z"/>
<path d="M16776 2844 c-446 -81 -814 -418 -931 -855 -117 -436 23 -898 360
-1190 224 -194 480 -289 777 -289 363 0 695 159 918 438 83 104 179 290 214
414 100 353 24 747 -199 1038 -178 232 -447 394 -739 445 -108 18 -293 18
-400 -1z"/>
<path d="M1796 3326 c-129 -47 -242 -165 -296 -310 -31 -84 -39 -264 -16 -356
37 -143 140 -286 246 -340 132 -67 284 -65 406 6 52 30 142 125 176 184 160
277 58 668 -209 796 -62 30 -89 37 -156 41 -69 3 -93 0 -151 -21z"/>
<path d="M2614 2970 c-71 -10 -121 -53 -163 -140 -26 -55 -26 -57 -29 -337
l-4 -283 -388 0 -388 0 -53 -28 c-118 -61 -164 -204 -110 -343 16 -43 73 -101
121 -123 43 -20 63 -21 545 -24 343 -2 514 0 544 8 66 16 113 59 147 132 l29
63 0 430 c0 483 -2 498 -73 577 -55 61 -102 79 -178 68z"/>
<path d="M2930 2330 l0 -630 1140 0 1140 0 0 408 c-1 305 -4 427 -15 486 -31
175 -132 300 -281 346 -64 19 -90 20 -1025 20 l-959 0 0 -630z"/>
<path d="M9928 1502 l-46 -3 4 -117 c8 -185 5 -178 62 -174 l48 4 -4 116 c-2
65 -7 131 -11 147 -6 29 -8 30 -53 27z"/>
<path d="M8260 1490 c0 -5 -9 -71 -20 -146 -11 -75 -19 -138 -18 -139 7 -6 98
-16 98 -11 0 3 9 67 20 142 11 76 17 141 13 145 -12 10 -93 18 -93 9z"/>
<path d="M8666 1468 c-10 -62 -26 -251 -21 -256 2 -2 24 -7 50 -9 39 -5 45 -3
46 13 0 11 6 75 13 144 14 139 14 140 -46 140 -34 0 -38 -3 -42 -32z"/>
<path d="M9066 1359 c-4 -77 -6 -142 -4 -144 2 -2 23 -5 48 -6 l45 -4 6 70 c4
39 7 105 8 148 l1 77 -49 0 -48 0 -7 -141z"/>
<path d="M9480 1355 l0 -145 50 0 50 0 0 145 0 145 -50 0 -50 0 0 -145z"/>
<path d="M10294 1487 c-2 -7 1 -73 8 -147 14 -148 15 -148 82 -136 l32 6 -13
123 c-6 67 -12 132 -12 145 -1 19 -6 22 -46 22 -28 0 -48 -5 -51 -13z"/>
<path d="M10745 1490 c-50 -6 -51 -13 -27 -175 l18 -120 44 3 c24 2 46 5 49 7
6 7 -31 285 -38 288 -3 2 -24 0 -46 -3z"/>
<path d="M8176 892 c-8 -30 -39 -272 -35 -276 2 -2 24 -6 49 -7 l45 -4 21 145
c12 80 21 145 20 146 0 1 -22 4 -48 7 -39 5 -48 4 -52 -11z"/>
<path d="M8609 889 c0 -13 -6 -79 -13 -147 -12 -123 -12 -123 10 -128 12 -3
34 -4 50 -2 l29 3 13 139 c7 76 11 141 8 143 -3 3 -25 8 -51 10 -42 5 -45 4
-46 -18z"/>
<path d="M9037 768 c-3 -78 -4 -144 -2 -146 2 -3 24 -7 48 -9 l44 -5 6 68 c4
38 7 106 7 152 l0 82 -48 0 -49 0 -6 -142z"/>
<path d="M9480 759 l0 -150 48 3 47 3 3 148 3 147 -51 0 -50 0 0 -151z"/>
<path d="M9916 773 c3 -76 7 -144 10 -150 2 -7 17 -13 33 -13 58 0 61 5 61 95
0 45 -3 110 -6 144 l-7 61 -49 0 -49 0 7 -137z"/>
<path d="M10360 904 c-14 -4 -14 -19 -3 -127 6 -67 12 -132 12 -144 1 -20 6
-23 46 -23 28 0 48 5 51 13 2 7 -1 73 -8 147 l-13 135 -35 2 c-19 0 -42 -1
-50 -3z"/>
<path d="M10813 903 c-18 -2 -33 -8 -33 -13 0 -15 40 -284 43 -286 1 -1 22 1
47 5 31 4 45 11 44 21 0 8 -9 75 -19 148 -15 109 -21 132 -34 130 -9 0 -31 -3
-48 -5z"/>
<path d="M8075 186 c-9 -74 -15 -142 -12 -150 3 -8 23 -15 46 -18 37 -3 41 -1
45 22 12 57 38 261 35 265 -2 2 -25 6 -50 10 l-46 7 -18 -136z"/>
<path d="M8542 183 c-7 -76 -12 -144 -12 -150 0 -9 16 -13 49 -13 l48 0 12
113 c16 162 15 174 -11 181 -13 3 -34 6 -49 6 l-25 0 -12 -137z"/>
<path d="M9017 303 c-3 -10 -7 -76 -9 -148 l-3 -130 47 -3 46 -3 6 38 c3 21 7
88 8 148 l3 110 -47 3 c-38 2 -47 0 -51 -15z"/>
<path d="M9480 170 l0 -150 50 0 50 0 0 150 0 150 -50 0 -50 0 0 -150z"/>
<path d="M9940 283 c0 -21 3 -89 7 -150 l6 -113 49 0 48 0 0 58 c0 33 -3 100
-6 150 l-7 92 -48 0 -49 0 0 -37z"/>
<path d="M10422 313 c-22 -4 -23 -8 -18 -51 3 -26 8 -78 11 -117 11 -126 10
-125 60 -125 24 0 46 3 48 7 2 5 -2 66 -9 138 -7 72 -13 136 -13 143 -1 12
-32 14 -79 5z"/>
<path d="M10887 313 c-20 -3 -27 -9 -23 -21 2 -9 12 -74 22 -145 l17 -127 36
0 c64 0 65 3 46 131 -8 63 -18 126 -21 142 -6 28 -12 30 -77 20z"/>
</g>
</svg>
